<?xml version="1.0" standalone="no"?>
<!DOCTYPE svg PUBLIC "-//W3C//DTD SVG 20010904//EN"
 "http://www.w3.org/TR/2001/REC-SVG-20010904/DTD/svg10.dtd">
<svg version="1.0" xmlns="http://www.w3.org/2000/svg"
 width="1017.000000pt" height="1280.000000pt" viewBox="0 0 1017.000000 1280.000000"
 preserveAspectRatio="xMidYMid meet">
<metadata>
Created by potrace 1.15, written by Peter Selinger 2001-2017
</metadata>
<g transform="translate(0.000000,1280.000000) scale(0.100000,-0.100000)"
fill="#ffffff" stroke="none">
<path d="M358 12785 c-307 -58 -447 -257 -297 -420 l40 -44 -25 -16 c-33 -22
-76 -109 -76 -155 0 -45 44 -136 77 -157 l24 -16 -35 -36 c-87 -90 -86 -210 4
-296 l29 -28 -26 -20 c-33 -26 -73 -112 -73 -157 0 -46 30 -108 69 -144 l31
-30 -34 -35 c-41 -42 -66 -97 -66 -143 0 -43 41 -129 73 -155 l26 -20 -29 -28
c-90 -86 -91 -206 -4 -296 l35 -36 -24 -16 c-33 -21 -77 -112 -77 -157 0 -46
43 -133 77 -155 l25 -17 -35 -36 c-85 -87 -88 -193 -9 -282 l37 -42 -37 -39
c-79 -83 -75 -203 11 -283 l31 -30 -34 -35 c-41 -42 -66 -97 -66 -144 0 -41
43 -130 75 -156 l24 -18 -29 -28 c-40 -38 -70 -103 -70 -150 0 -47 30 -112 70
-150 l29 -28 -24 -18 c-32 -26 -75 -116 -75 -158 1 -47 30 -109 69 -145 l31
-30 -34 -35 c-83 -85 -87 -190 -10 -279 l36 -42 -36 -42 c-77 -89 -73 -194 9
-278 l35 -35 -32 -30 c-38 -37 -67 -99 -68 -146 0 -44 44 -135 77 -156 l24
-16 -35 -36 c-87 -90 -86 -210 4 -296 l29 -28 -24 -18 c-32 -26 -75 -116 -75
-158 1 -47 30 -109 69 -145 l31 -30 -34 -35 c-41 -42 -66 -97 -66 -143 0 -43
41 -129 73 -155 l26 -20 -29 -28 c-90 -86 -91 -206 -3 -297 l35 -36 -25 -17
c-34 -22 -77 -109 -77 -155 0 -46 43 -133 77 -155 l25 -17 -35 -36 c-85 -87
-88 -193 -9 -282 l37 -42 -37 -39 c-79 -83 -75 -203 11 -283 l31 -30 -34 -35
c-41 -42 -66 -97 -66 -144 0 -41 43 -130 75 -156 l24 -18 -29 -28 c-17 -16
-39 -47 -50 -70 -37 -76 -22 -149 44 -223 l36 -40 -24 -15 c-32 -21 -76 -112
-76 -156 1 -47 30 -109 69 -145 l31 -30 -34 -35 c-83 -85 -87 -190 -10 -279
l36 -42 -36 -42 c-77 -90 -72 -203 13 -282 l31 -30 -34 -35 c-41 -42 -66 -97
-66 -144 0 -42 45 -133 76 -154 l24 -15 -36 -40 c-66 -74 -81 -147 -44 -223
11 -23 33 -54 50 -70 l29 -28 -24 -18 c-32 -26 -75 -116 -75 -158 1 -47 30
-109 69 -145 l31 -30 -34 -35 c-41 -42 -66 -97 -66 -143 0 -43 41 -129 73
-155 l26 -20 -29 -28 c-90 -86 -91 -206 -3 -297 l35 -36 -25 -17 c-34 -22 -77
-109 -77 -155 0 -46 43 -133 77 -155 l25 -17 -35 -36 c-88 -91 -87 -211 3
-297 l29 -28 -26 -20 c-33 -26 -73 -112 -73 -157 1 -110 119 -217 295 -264 33
-9 104 -20 158 -23 l97 -6 0 -64 c0 -55 4 -67 25 -89 l24 -24 4403 2 4403 3
65 23 c156 57 285 150 363 264 21 29 61 72 91 96 96 75 174 193 218 332 l23
75 0 5630 c0 5465 -1 5632 -19 5690 -73 237 -257 418 -482 475 -76 20 -120 20
-4357 20 l-4280 0 -47 44 c-96 90 -231 135 -425 141 -80 3 -146 0 -197 -10z
m317 -155 c28 -5 62 -13 78 -19 27 -10 27 -11 27 -107 0 -88 -2 -96 -17 -89
-78 30 -305 36 -425 10 -89 -18 -114 -11 -162 45 -30 37 -25 54 27 94 92 69
288 97 472 66z m-300 -410 c28 -5 78 -9 113 -9 l62 -1 0 -60 0 -60 -57 0 c-31
0 -98 -7 -149 -16 -92 -17 -92 -17 -128 6 -78 47 -80 86 -8 135 39 28 42 28
167 5z m-15 -350 c30 -5 85 -12 123 -15 l67 -7 0 -53 0 -52 -82 -7 c-46 -4
-112 -14 -148 -22 l-64 -15 -40 28 c-21 15 -45 37 -53 49 -12 18 -11 24 8 49
32 40 80 67 109 60 14 -3 50 -9 80 -15z m103 -366 l87 -7 0 -58 0 -59 -67 -1
c-38 0 -88 -4 -113 -9 -25 -4 -61 -11 -81 -15 -30 -6 -44 -3 -74 18 -20 14
-44 35 -52 47 -14 20 -14 24 4 48 11 15 37 36 57 48 35 20 41 20 94 8 31 -8
96 -17 145 -20z m-118 -339 c39 -8 100 -15 138 -15 l67 0 0 -60 0 -60 -57 0
c-32 0 -97 -8 -146 -18 -87 -18 -88 -18 -124 2 -47 27 -76 66 -67 90 7 19 89
76 108 76 6 0 43 -7 81 -15z m-20 -350 c33 -8 97 -17 143 -21 l82 -7 0 -53 0
-52 -67 -6 c-38 -4 -103 -13 -145 -22 -89 -17 -115 -10 -162 46 -21 25 -24 35
-15 51 10 19 85 79 98 79 3 -1 33 -7 66 -15z m30 -360 c39 -8 98 -15 133 -15
l62 0 0 -59 0 -58 -92 -6 c-51 -3 -118 -12 -149 -18 -52 -12 -58 -11 -93 10
-78 48 -80 87 -8 136 43 29 54 30 147 10z m30 -356 c44 -6 99 -13 123 -15 l42
-5 0 -53 0 -53 -82 -7 c-46 -3 -110 -13 -143 -20 -54 -13 -62 -13 -96 5 -49
24 -81 66 -70 88 24 43 86 83 121 76 14 -3 61 -10 105 -16z m-15 -355 c41 -7
99 -13 128 -14 l52 0 0 -59 0 -58 -72 -2 c-40 -1 -105 -9 -145 -17 -63 -13
-76 -13 -101 0 -29 15 -82 64 -82 76 0 32 101 104 130 94 8 -3 49 -12 90 -20z
m-25 -349 c39 -8 100 -15 138 -15 l67 0 0 -59 0 -58 -82 -6 c-46 -2 -112 -11
-146 -18 -60 -13 -66 -12 -100 8 -47 27 -75 64 -66 86 8 21 83 76 104 77 8 0
47 -7 85 -15z m-20 -349 c39 -8 105 -18 148 -21 l77 -7 0 -53 0 -52 -106 -11
c-58 -7 -123 -17 -144 -23 -34 -10 -43 -9 -74 10 -53 33 -78 69 -65 92 7 14
84 79 93 79 1 0 33 -6 71 -14z m133 -373 l92 -6 0 -59 0 -58 -62 0 c-35 0
-102 -7 -149 -16 l-85 -17 -42 27 c-77 48 -76 85 4 136 44 27 46 28 97 14 29
-8 94 -17 145 -21z m-123 -337 c39 -8 102 -16 140 -18 l70 -4 3 -55 3 -56 -88
-6 c-48 -4 -112 -13 -142 -21 -50 -14 -57 -14 -91 4 -55 28 -82 65 -69 94 9
19 82 76 99 76 3 0 37 -6 75 -14z m43 -361 c46 -8 104 -15 128 -15 l44 0 0
-54 0 -53 -37 -7 c-21 -3 -53 -6 -71 -6 -18 0 -66 -7 -107 -15 -66 -14 -78
-14 -104 -1 -44 23 -83 74 -72 94 20 37 95 85 120 76 7 -2 52 -11 99 -19z m-3
-355 c28 -5 78 -9 113 -9 l62 -1 0 -60 0 -60 -57 0 c-31 0 -98 -7 -149 -16
-92 -17 -92 -17 -128 6 -78 47 -80 87 -8 135 39 26 49 27 167 5z m-20 -349
c28 -6 83 -13 123 -16 l72 -7 0 -53 0 -52 -82 -7 c-46 -4 -112 -14 -148 -22
l-64 -15 -40 28 c-21 15 -45 37 -53 49 -12 18 -11 24 8 49 32 40 80 67 109 60
14 -3 48 -9 75 -14z m103 -368 l92 -6 0 -59 0 -58 -67 -1 c-38 0 -88 -4 -113
-9 -25 -4 -61 -11 -82 -15 -30 -6 -43 -3 -81 24 -24 16 -48 38 -51 48 -9 23
21 63 69 89 35 20 40 21 89 8 28 -8 93 -17 144 -21z m-115 -338 c43 -8 108
-15 143 -15 l64 0 0 -60 0 -60 -57 0 c-32 0 -97 -8 -146 -18 -87 -18 -88 -18
-124 2 -20 12 -45 33 -56 48 -18 24 -18 28 -3 49 14 20 82 69 96 69 3 0 40 -7
83 -15z m-18 -350 c33 -8 97 -17 143 -21 l82 -7 0 -52 0 -52 -37 -7 c-21 -3
-55 -6 -76 -6 -21 0 -69 -7 -107 -16 -62 -14 -72 -14 -98 0 -16 8 -41 29 -56
46 -21 25 -24 35 -15 51 10 19 85 79 98 79 3 -1 33 -7 66 -15z m50 -364 c28
-6 78 -10 113 -10 l62 -1 0 -59 0 -58 -92 -6 c-51 -3 -118 -12 -149 -18 -52
-12 -58 -11 -93 10 -78 48 -80 87 -8 136 39 28 50 28 167 6z m-5 -350 c36 -6
91 -13 123 -17 l57 -5 0 -55 0 -54 -44 0 c-24 0 -83 -7 -132 -16 -49 -10 -99
-17 -112 -17 -25 1 -87 44 -102 72 -19 37 71 117 120 107 14 -3 54 -10 90 -15z
m0 -357 c41 -7 99 -13 128 -14 l52 0 0 -60 0 -60 -70 0 c-39 0 -104 -7 -145
-15 -65 -14 -78 -14 -103 -1 -29 15 -82 64 -82 76 0 32 101 104 130 94 8 -3
49 -12 90 -20z m-25 -349 c39 -8 100 -15 138 -15 l67 0 0 -59 0 -58 -82 -6
c-46 -2 -112 -11 -146 -18 -60 -13 -66 -12 -100 8 -47 27 -75 64 -66 86 8 21
83 76 104 77 8 0 47 -7 85 -15z m-23 -349 c35 -8 100 -17 146 -21 l82 -7 0
-52 0 -53 -106 -11 c-58 -7 -123 -17 -144 -23 -34 -10 -43 -9 -74 10 -53 33
-78 69 -65 92 8 16 84 79 95 79 1 0 31 -6 66 -14z m136 -373 l92 -6 0 -59 0
-58 -62 0 c-35 0 -102 -7 -149 -16 l-85 -17 -42 27 c-77 48 -76 85 4 136 44
27 46 28 97 14 29 -8 94 -17 145 -21z m-73 -344 c44 -6 99 -13 123 -15 l42 -5
0 -53 0 -53 -87 -7 c-49 -3 -112 -13 -142 -21 -50 -13 -57 -12 -91 5 -50 25
-83 67 -71 89 24 43 86 83 121 76 14 -3 61 -10 105 -16z m-65 -344 c30 -8 94
-18 143 -21 l87 -7 0 -52 c0 -51 -1 -53 -31 -59 -17 -3 -49 -6 -71 -6 -21 0
-72 -7 -113 -15 -66 -14 -78 -14 -104 -1 -44 23 -83 74 -72 94 12 23 39 46 76
65 17 9 30 16 30 16 0 1 25 -6 55 -14z m55 -365 c28 -5 78 -9 113 -9 l62 -1 0
-58 0 -59 -92 -6 c-51 -4 -116 -13 -145 -21 -51 -14 -53 -13 -97 14 -79 50
-81 86 -8 135 39 26 49 27 167 5z m-20 -349 c28 -6 83 -13 123 -16 l72 -7 0
-53 0 -53 -82 -7 c-46 -4 -112 -13 -147 -21 -60 -14 -65 -13 -97 7 -51 31 -76
67 -63 90 19 35 91 81 119 75 14 -3 48 -10 75 -15z m30 -361 c28 -5 76 -9 108
-9 l57 -1 0 -60 0 -60 -62 0 c-35 0 -102 -7 -149 -16 l-86 -17 -45 31 c-25 17
-48 39 -52 48 -8 22 17 60 57 85 33 21 55 21 172 -1z m-50 -345 c39 -8 103
-15 143 -15 l72 0 0 -59 0 -58 -87 -6 c-49 -4 -113 -13 -143 -21 -52 -14 -57
-13 -94 7 -22 12 -48 34 -59 48 -24 33 -13 54 47 93 47 31 34 30 121 11z m45
-361 c41 -7 96 -13 123 -14 l47 0 0 -54 0 -53 -37 -7 c-21 -3 -55 -6 -76 -6
-21 0 -69 -7 -107 -16 -62 -14 -72 -14 -98 0 -16 8 -41 29 -56 46 -32 38 -25
56 37 101 31 23 48 28 67 23 14 -3 59 -12 100 -20z m-5 -354 c28 -5 78 -9 113
-9 l62 -1 0 -60 0 -60 -62 -1 c-35 0 -85 -4 -113 -10 -121 -22 -122 -22 -160
1 -77 47 -79 86 -7 135 39 28 42 28 167 5z m-5 -350 c36 -5 91 -13 123 -16
l57 -5 0 -53 0 -53 -82 -7 c-46 -3 -112 -13 -148 -21 l-64 -16 -40 28 c-21 15
-45 37 -53 49 -12 18 -11 24 8 49 32 40 80 67 109 61 14 -3 54 -10 90 -16z
m93 -366 l87 -7 0 -100 0 -100 -84 6 c-137 11 -270 63 -305 119 -11 18 -10 25
7 47 10 14 36 35 56 47 35 20 41 20 94 8 31 -8 96 -17 145 -20z"/>
</g>
</svg>
